<svg width="25" height="24" viewBox="0 0 25 24" fill="none" xmlns="http://www.w3.org/2000/svg">
<path d="M21.4782 9.20102C21.5217 9.41929 21.4994 9.64555 21.4142 9.85117C21.329 10.0567 21.1848 10.2323 20.9998 10.3559C20.8147 10.4794 20.5972 10.5453 20.3748 10.5453H3.5V8.29532H17.659L13.9545 4.59073L15.5452 3L21.1701 8.62494C21.3275 8.78226 21.4348 8.98274 21.4782 9.20102Z" fill="white"/>
<path d="M3.52178 14.3439C3.47833 14.1256 3.50059 13.8994 3.58576 13.6937C3.67097 13.4882 3.81521 13.3126 4.00023 13.189C4.18526 13.0655 4.40276 12.9996 4.62524 12.9996H21.5V15.2496H7.34096L11.0455 18.9542L9.4548 20.5449L3.82988 14.92C3.67246 14.7627 3.56524 14.5622 3.52178 14.3439Z" fill="white"/>
</svg>
